<?xml version="1.0" encoding="UTF-8"?>
<svg version="1.1" xmlns="http://www.w3.org/2000/svg" width="1080" height="1350">
<path d="M0 0 C9.71599714 7.65942244 17.76966779 16.64013049 23.12890625 27.89453125 C23.04418945 29.87109375 23.04418945 29.87109375 22.12890625 31.89453125 C19.8894043 33.56347656 19.8894043 33.56347656 16.890625 35.22265625 C15.77469971 35.84930176 14.65877441 36.47594727 13.5090332 37.12158203 C12.2782294 37.79602957 11.0473517 38.47034227 9.81640625 39.14453125 C8.54635816 39.85264074 7.27708172 40.56213588 6.00854492 41.27294922 C3.36766737 42.75141337 0.72354125 44.22381567 -1.92285156 45.69238281 C-7.42071025 48.75018629 -12.87167622 51.88913028 -18.32571411 55.02416992 C-25.85286323 59.3477438 -33.39616514 63.64160316 -40.9765625 67.87109375 C-42.11520752 68.50644043 -43.25385254 69.14178711 -44.42700195 69.79638672 C-46.57647057 70.99325891 -48.72726723 72.18775047 -50.87963867 73.37939453 C-55.6802136 76.04909997 -60.36622037 78.74875527 -64.87109375 81.89453125 C-55.50196996 89.94821932 -46.02399631 92.81625932 -33.74609375 92.27734375 C-21.38011401 91.05570462 -13.06191896 84.84775633 -5.21875 75.62890625 C-3.8061403 73.92767206 -3.8061403 73.92767206 -2.87109375 71.89453125 C1.80606012 72.86177056 5.31504755 75.25845637 9.31640625 77.76953125 C10.05310547 78.21683594 10.78980469 78.66414062 11.54882812 79.125 C12.24943359 79.56199219 12.95003906 79.99898437 13.671875 80.44921875 C14.3114917 80.84608887 14.9511084 81.24295898 15.61010742 81.65185547 C17.12890625 82.89453125 17.12890625 82.89453125 18.12890625 85.89453125 C10.08361739 100.63214748 -4.57929641 110.99868763 -20.43359375 115.89453125 C-38.46943803 119.66321513 -57.06888434 117.35872713 -72.87109375 107.89453125 C-89.16792516 96.69931663 -98.57020384 81.57375833 -102.62109375 62.33203125 C-104.12109391 41.70702903 -99.2251355 23.88161106 -85.87109375 7.83203125 C-63.63474382 -15.85694456 -26.04370978 -19.09872051 0 0 Z M-70.08203125 26.69140625 C-77.51624019 35.8461963 -79.64010017 46.37731888 -78.87109375 57.89453125 C-78.57605227 59.23685737 -78.25639037 60.57527563 -77.87109375 61.89453125 C-73.86032663 60.65402742 -70.31443056 59.19036172 -66.66015625 57.12890625 C-65.18131958 56.29854858 -65.18131958 56.29854858 -63.67260742 55.45141602 C-62.62435791 54.85514404 -61.5761084 54.25887207 -60.49609375 53.64453125 C-59.40208252 53.02698975 -58.30807129 52.40944824 -57.1809082 51.77319336 C-46.63165794 45.79979472 -36.14162346 39.72137964 -25.70849609 33.54736328 C-23.65548216 32.35144998 -21.58576185 31.18406409 -19.50634766 30.03466797 C-18.40597168 29.41994629 -17.3055957 28.80522461 -16.171875 28.171875 C-15.15907471 27.6162085 -14.14627441 27.06054199 -13.1027832 26.48803711 C-12.36632568 25.96218018 -11.62986816 25.43632324 -10.87109375 24.89453125 C-10.5352493 21.93539927 -10.5352493 21.93539927 -12.19921875 20.4296875 C-31.17784294 5.88712384 -54.24657833 10.16196933 -70.08203125 26.69140625 Z " fill="#031A3F" transform="translate(1010.87109375,596.10546875)"/>
<path d="M0 0 C9.71599714 7.65942244 17.76966779 16.64013049 23.12890625 27.89453125 C23.04418945 29.87109375 23.04418945 29.87109375 22.12890625 31.89453125 C19.8894043 33.56347656 19.8894043 33.56347656 16.890625 35.22265625 C15.77469971 35.84930176 14.65877441 36.47594727 13.5090332 37.12158203 C12.2782294 37.79602957 11.0473517 38.47034227 9.81640625 39.14453125 C8.54635816 39.85264074 7.27708172 40.56213588 6.00854492 41.27294922 C3.36766737 42.75141337 0.72354125 44.22381567 -1.92285156 45.69238281 C-7.42071025 48.75018629 -12.87167622 51.88913028 -18.32571411 55.02416992 C-25.85286323 59.3477438 -33.39616514 63.64160316 -40.9765625 67.87109375 C-42.11520752 68.50644043 -43.25385254 69.14178711 -44.42700195 69.79638672 C-46.57647057 70.99325891 -48.72726723 72.18775047 -50.87963867 73.37939453 C-55.6802136 76.04909997 -60.36622037 78.74875527 -64.87109375 81.89453125 C-55.50196996 89.94821932 -46.02399631 92.81625932 -33.74609375 92.27734375 C-21.38011401 91.05570462 -13.06191896 84.84775633 -5.21875 75.62890625 C-3.8061403 73.92767206 -3.8061403 73.92767206 -2.87109375 71.89453125 C1.80606012 72.86177056 5.31504755 75.25845637 9.31640625 77.76953125 C10.05310547 78.21683594 10.78980469 78.66414062 11.54882812 79.125 C12.24943359 79.56199219 12.95003906 79.99898437 13.671875 80.44921875 C14.3114917 80.84608887 14.9511084 81.24295898 15.61010742 81.65185547 C17.12890625 82.89453125 17.12890625 82.89453125 18.12890625 85.89453125 C10.08361739 100.63214748 -4.57929641 110.99868763 -20.43359375 115.89453125 C-38.46943803 119.66321513 -57.06888434 117.35872713 -72.87109375 107.89453125 C-89.16792516 96.69931663 -98.57020384 81.57375833 -102.62109375 62.33203125 C-104.12109391 41.70702903 -99.2251355 23.88161106 -85.87109375 7.83203125 C-63.63474382 -15.85694456 -26.04370978 -19.09872051 0 0 Z M-70.08203125 26.69140625 C-77.51624019 35.8461963 -79.64010017 46.37731888 -78.87109375 57.89453125 C-78.57605227 59.23685737 -78.25639037 60.57527563 -77.87109375 61.89453125 C-73.86032663 60.65402742 -70.31443056 59.19036172 -66.66015625 57.12890625 C-65.18131958 56.29854858 -65.18131958 56.29854858 -63.67260742 55.45141602 C-62.62435791 54.85514404 -61.5761084 54.25887207 -60.49609375 53.64453125 C-59.40208252 53.02698975 -58.30807129 52.40944824 -57.1809082 51.77319336 C-46.63165794 45.79979472 -36.14162346 39.72137964 -25.70849609 33.54736328 C-23.65548216 32.35144998 -21.58576185 31.18406409 -19.50634766 30.03466797 C-18.40597168 29.41994629 -17.3055957 28.80522461 -16.171875 28.171875 C-15.15907471 27.6162085 -14.14627441 27.06054199 -13.1027832 26.48803711 C-12.36632568 25.96218018 -11.62986816 25.43632324 -10.87109375 24.89453125 C-10.5352493 21.93539927 -10.5352493 21.93539927 -12.19921875 20.4296875 C-31.17784294 5.88712384 -54.24657833 10.16196933 -70.08203125 26.69140625 Z " fill="#031A3F" transform="translate(466.87109375,596.10546875)"/>
<path d="M0 0 C14.44376514 12.44578034 21.99785406 28.99491176 23.55859375 47.84765625 C24.01469565 66.49417498 17.2534449 82.90889515 4.8125 96.6328125 C-9.25561042 110.32409853 -25.28245877 115.37886052 -44.60913086 115.22705078 C-62.20861767 114.79011463 -76.24686318 108.01246043 -88.83984375 95.78515625 C-101.37114881 82.4841741 -107.06156819 66.16892583 -106.8359375 48.05078125 C-105.99282982 30.01271426 -98.00235403 13.11764763 -84.6875 0.875 C-59.66890659 -19.03888514 -25.46589141 -19.53209147 0 0 Z M-73.8984375 24.671875 C-81.16206581 33.61660506 -83.84227714 44.54930109 -82.6875 55.875 C-80.47880745 67.35181383 -75.30838307 76.74871077 -65.875 83.8125 C-54.83929774 90.77889171 -43.30322974 92.97254889 -30.5 90.1796875 C-19.72207914 86.61698588 -10.6027675 78.96899954 -5.109375 69.015625 C-0.47270397 58.72967662 0.56913797 48.74046493 -2.6875 37.875 C-7.00239399 26.72701159 -13.84590686 18.17533443 -24.6875 12.875 C-42.85168941 4.99961718 -60.77973385 10.97824808 -73.8984375 24.671875 Z " fill="#031A3F" transform="translate(606.6875,598.125)"/>
<path d="M0 0 C7.92 0 15.84 0 24 0 C24.0093457 2.17360107 24.01869141 4.34720215 24.02832031 6.58666992 C24.06227757 13.81516405 24.11792882 21.04337831 24.18390274 28.27164745 C24.22320184 32.64880432 24.25547554 37.02576529 24.27099609 41.40307617 C24.28627964 45.63735359 24.32092823 49.87109182 24.36830902 54.10512733 C24.38300343 55.71037386 24.39103405 57.31569742 24.39188385 58.92101097 C24.40696368 73.14027175 26.16619363 85.92663821 36 97 C42.92894273 103.38667764 50.85633577 104.85619401 60 105 C71.19763012 104.45451328 82.19779314 99.90173108 90.5 92.3125 C99.69067901 81.63937801 100.88634025 71.65706279 100.8046875 58.203125 C100.81596073 56.51631793 100.82985136 54.82952653 100.84622192 53.14276123 C100.88200183 48.74341606 100.88266656 44.34476944 100.87554932 39.9453125 C100.87463111 35.43998 100.90756979 30.93490198 100.9375 26.4296875 C100.99111958 17.61963598 101.00443744 8.81021372 101 0 C108.59 0 116.18 0 124 0 C124 41.25 124 82.5 124 125 C116.41 125 108.82 125 101 125 C100.67 120.71 100.34 116.42 100 112 C98.741875 113.051875 97.48375 114.10375 96.1875 115.1875 C81.42745359 126.60347339 64.08406546 128.45083136 46 127 C33.19421374 125.28379009 22.42653917 118.77421227 14.13671875 108.99609375 C2.10149222 92.12037392 -0.16918903 74.14389126 -0.09765625 53.90625 C-0.09578842 52.34826707 -0.09436624 50.79028354 -0.09336853 49.2322998 C-0.08957208 45.15529729 -0.0797667 41.07833107 -0.06866455 37.00134277 C-0.05838831 32.83162934 -0.05385766 28.66190998 -0.04882812 24.4921875 C-0.03814153 16.32810658 -0.02056837 8.16406201 0 0 Z " fill="#031A3F" transform="translate(773,586)"/>
<path d="M0 0 C8.58 0 17.16 0 26 0 C27.97846634 4.23806933 29.9565888 8.47629626 31.93389893 12.71490479 C32.63798141 14.22404454 33.34220236 15.7331197 34.04656982 17.24212646 C36.681814 22.88829383 39.3118283 28.53687473 41.9375 34.1875 C42.34541779 35.06508972 42.75333557 35.94267944 43.1736145 36.84686279 C49.92274364 51.3805985 56.50335825 65.98281195 62.92358398 80.66479492 C63.23739014 81.37873917 63.55119629 82.09268341 63.87451172 82.82826233 C64.45052712 84.13908483 65.0235183 85.45124329 65.5925293 86.76512146 C67.46831195 91.02702927 69.64141318 94.99357195 72 99 C80.90415848 79.74758559 89.72830505 60.46545198 98.30615234 41.06518555 C104.39146837 27.3062288 110.65490948 13.64194463 117 0 C125.58 0 134.16 0 143 0 C141.50365892 4.48902324 139.94762251 8.44390804 137.9375 12.6875 C137.6344545 13.32968475 137.331409 13.97186951 137.0191803 14.6335144 C136.01601608 16.75722044 135.0080226 18.87859625 134 21 C133.28412596 22.5130427 132.56855622 24.0262294 131.85327148 25.53955078 C129.9565905 29.55016966 128.0557909 33.55882269 126.1539917 37.5670166 C124.27893306 41.52023962 122.40717107 45.47502245 120.53515625 49.4296875 C117.91956076 54.95421062 115.30294417 60.4782482 112.68507385 66.00169373 C108.05126603 75.77865855 103.42075267 85.55717492 98.7975769 95.33917236 C98.06946134 96.87947456 97.34105736 98.41964045 96.61233521 99.95965576 C95.59883472 102.1016353 94.58639998 104.24411556 93.57421875 106.38671875 C93.28535797 106.99667191 92.99649719 107.60662506 92.69888306 108.23506165 C90.07327625 113.79837075 87.54661253 119.39745244 85 125 C76.09 125 67.18 125 58 125 C56.205625 121.1225 54.41125 117.245 52.5625 113.25 C47.31649167 101.93664544 42.01779052 90.64887034 36.6875 79.375 C36.33137634 78.62168396 35.97525269 77.86836792 35.6083374 77.09222412 C34.15670692 74.0217028 32.7049265 70.95125243 31.25296021 67.88088989 C22.4472164 49.25879381 13.65318317 30.6310875 5 11.9375 C4.48912842 10.83647949 3.97825684 9.73545898 3.4519043 8.60107422 C2.99340088 7.60736816 2.53489746 6.61366211 2.0625 5.58984375 C1.66160156 4.72222412 1.26070312 3.85460449 0.84765625 2.96069336 C0 1 0 1 0 0 Z " fill="#031A3F" transform="translate(626,586)"/>
<path d="M0 0 C0.85787109 0.17692383 1.71574219 0.35384766 2.59960938 0.53613281 C12.15067777 2.56179897 21.53623055 5.01280748 30.8125 8.0625 C31.52293457 8.29557861 32.23336914 8.52865723 32.96533203 8.76879883 C38.56867165 10.68874512 44.4997555 12.81228606 49 16.75 C50.91808156 21.06568351 50.48046731 25.55859808 49 30 C48.34 30 47.68 30 47 30 C46.67 30.99 46.34 31.98 46 33 C40.97555341 35.5122233 35.49430818 34.00531747 30.41796875 32.390625 C28.3382716 31.68550451 26.26154822 30.97156712 24.1875 30.25 C16.37605772 27.64121132 8.63301107 25.22788281 0.5625 23.5625 C-0.16235596 23.41135742 -0.88721191 23.26021484 -1.6340332 23.10449219 C-38.49302131 15.89545186 -76.46140128 22.76261462 -107.93359375 43.25927734 C-110.36783624 44.9407538 -112.72099101 46.70110938 -115.0390625 48.5390625 C-117 50 -117 50 -120 51 C-120 51.66 -120 52.32 -120 53 C-123.46153846 56 -123.46153846 56 -126 56 C-126 56.66 -126 57.32 -126 58 C-127.9765625 59.91015625 -127.9765625 59.91015625 -130.625 62.0625 C-131.48351562 62.77535156 -132.34203125 63.48820313 -133.2265625 64.22265625 C-136.27915048 66.17889221 -138.40769325 66.73206552 -142 67 C-145.98042484 65.95750778 -148.68614471 64.42793377 -151 61 C-152.37076475 57.30111099 -152.28882285 54.72977522 -151 51 C-147.12594118 45.64395995 -141.97246952 41.3043682 -137 37 C-136.46793945 36.53658203 -135.93587891 36.07316406 -135.38769531 35.59570312 C-127.71980932 29 -127.71980932 29 -125 29 C-125 28.34 -125 27.68 -125 27 C-120.61538462 24 -120.61538462 24 -118 24 C-118 23.34 -118 22.68 -118 22 C-114.56616927 20.09746602 -111.12727376 18.20426468 -107.6875 16.3125 C-106.73037109 15.78205078 -105.77324219 15.25160156 -104.78710938 14.70507812 C-94.70291396 9.17065438 -84.93837631 4.60102863 -73.75 1.8125 C-72.7384082 1.55839355 -71.72681641 1.30428711 -70.68457031 1.04248047 C-47.50274184 -4.63643857 -23.38529799 -4.83221385 0 0 Z " fill="#1DE8F3" transform="translate(210,502)"/>
<path d="M0 0 C0.99 0.33 1.98 0.66 3 1 C3 1.66 3 2.32 3 3 C3.66 3 4.32 3 5 3 C5 3.66 5 4.32 5 5 C5.87591797 5.39445313 5.87591797 5.39445313 6.76953125 5.796875 C9.10263897 7.05536393 10.75103421 8.44750354 12.6875 10.25 C16.32486529 13.53116379 20.14764003 16.17041995 24.3125 18.73828125 C24.869375 19.15464844 25.42625 19.57101562 26 20 C26 20.66 26 21.32 26 22 C26.67675781 22.24363281 27.35351562 22.48726562 28.05078125 22.73828125 C30.9180048 23.96492126 33.53398411 25.43017512 36.21264648 27.02075195 C68.97402719 46.37625181 107.23060448 50.03955995 144.046875 41.3515625 C151.09345482 39.53037307 157.97650873 37.11251618 164.81835938 34.64208984 C170.07038552 32.78207054 174.41494386 31.28917467 180 32 C183.04172389 33.58751327 185.45151837 35.90303675 187 39 C187.69278351 45.92783505 187.69278351 45.92783505 185.03125 50.046875 C181.70231542 53.76655163 177.79028036 55.02588831 173.125 56.5 C172.25294922 56.78842773 171.38089844 57.07685547 170.48242188 57.37402344 C138.55969321 67.70196507 103.20614712 74.53189803 70 66 C68.90824463 65.73461426 68.90824463 65.73461426 67.79443359 65.46386719 C44.62961143 59.80341898 24.4334262 49.0385334 6 34 C4.83791016 33.18015625 4.83791016 33.18015625 3.65234375 32.34375 C3.10707031 31.9003125 2.56179687 31.456875 2 31 C2 30.34 2 29.68 2 29 C1.443125 28.7525 0.88625 28.505 0.3125 28.25 C-2.42410913 26.77075182 -4.67650869 25.06532561 -7 23 C-7 22.34 -7 21.68 -7 21 C-7.66 21 -8.32 21 -9 21 C-12.83349614 17.53159873 -14.3832392 15.15674291 -14.6875 9.9375 C-14.49149815 6.42535867 -14.0659081 4.34248971 -11.5 1.875 C-7.08019691 -0.49275166 -4.94236054 -0.48613382 0 0 Z " fill="#EDDE2F" transform="translate(73,738)"/>
<path d="M0 0 C4.94749333 3.66114507 9.30919404 7.95545567 13.53125 12.421875 C10.29994896 19.54974495 4.06299141 25.02505411 -1.46875 30.421875 C-4.8410105 29.00390926 -6.54548159 27.34978702 -8.78125 24.484375 C-12.92077287 19.68252847 -16.23459357 17.75283142 -22.484375 17.11328125 C-31.93525734 16.75063111 -38.3114334 18.62200189 -45.59375 24.609375 C-54.65265447 33.09081943 -60.30603728 41.79348912 -61.05053711 54.35961914 C-61.08953849 55.01452111 -61.12853987 55.66942308 -61.16872311 56.34417057 C-61.55180628 63.15653526 -61.69117621 69.971105 -61.78515625 76.79296875 C-61.80593735 78.08131119 -61.82671844 79.36965363 -61.84812927 80.69703674 C-61.90241798 84.06531357 -61.95222397 87.43364106 -62.00097656 90.80200195 C-62.05188798 94.26192548 -62.10720435 97.72177858 -62.16210938 101.18164062 C-62.26854453 107.92832509 -62.36981774 114.67507637 -62.46875 121.421875 C-70.05875 121.421875 -77.64875 121.421875 -85.46875 121.421875 C-85.46875 80.171875 -85.46875 38.921875 -85.46875 -3.578125 C-77.54875 -3.578125 -69.62875 -3.578125 -61.46875 -3.578125 C-61.13875 0.381875 -60.80875 4.341875 -60.46875 8.421875 C-59.65792969 7.74640625 -58.84710938 7.0709375 -58.01171875 6.375 C-41.93277461 -6.73397928 -18.73366765 -11.97531919 0 0 Z " fill="#031A3F" transform="translate(354.46875,589.578125)"/>
<path d="M0 0 C2.73192623 1.63915574 3.6202925 2.82590445 4.59375 5.8359375 C5.36548151 9.70943603 5.33632199 11.34784265 3.4609375 14.984375 C0.51392038 18.59564043 -2.26254044 20.30895013 -6.375 22.375 C-7.105979 22.75148682 -7.83695801 23.12797363 -8.59008789 23.51586914 C-40.5142587 39.42307916 -73.95610839 42.41039474 -108.02148438 31.34326172 C-131.29731538 23.52386455 -131.29731538 23.52386455 -137 16 C-137.86908035 12.02513637 -138.10806339 7.77604486 -135.8984375 4.234375 C-133.40032146 1.90992478 -131.25657133 1.03174746 -127.90625 0.6171875 C-122.71670955 1.12576246 -118.7452734 3.05178854 -114.0625 5.25 C-105.13892302 9.25701425 -96.61691644 12.16180152 -87 14 C-86.22398437 14.14953125 -85.44796875 14.2990625 -84.6484375 14.453125 C-82.41744877 14.78045153 -80.25470468 14.9175108 -78 15 C-76.72125 15.0515625 -75.4425 15.103125 -74.125 15.15625 C-53.05828215 15.72562075 -32.72232569 11.36317921 -13.75 2.0625 C-9.14047604 -0.15065777 -5.07129311 -1.10703904 0 0 Z " fill="#EDDE2F" transform="translate(247,737)"/>
<path d="M0 0 C2.36432847 3.46768176 3.01016918 5.41018731 2.9375 9.625 C1.88939752 13.39816893 1.21830373 14.79800271 -2 17 C-8.71958571 18.90013992 -12.7800501 16.74458285 -18.75 13.875 C-46.71063406 1.20222996 -78.59564822 -2.58548832 -107.8671875 8.421875 C-112.72682525 10.31251895 -117.53747946 12.23348738 -122.16015625 14.65625 C-126.22062693 16.57757313 -129.60293544 16.83253245 -134 16 C-137.0625 14.0625 -137.0625 14.0625 -139 11 C-139.69056879 7.84392942 -139.90641796 5.11381227 -139 2 C-135.60740198 -2.09886378 -131.72433067 -4.56937427 -127 -6.875 C-126.3179248 -7.21160645 -125.63584961 -7.54821289 -124.93310547 -7.89501953 C-84.84718053 -26.96866556 -37.24372254 -25.40994715 0 0 Z " fill="#1DE8F3" transform="translate(249,552)"/>
<path d="M0 0 C3.54705288 1.60541967 6.50479251 3.7454726 9.625 6.0625 C13.17515164 8.75476379 13.17515164 8.75476379 17 11 C17 11.66 17 12.32 17 13 C18.051875 13.37125 18.051875 13.37125 19.125 13.75 C22.37002459 15.16088026 25.10316737 16.97895398 28 19 C27.67 19.66 27.34 20.32 27 21 C24.99492073 19.88407791 22.99603904 18.75701288 21 17.625 C19.329375 16.68527344 19.329375 16.68527344 17.625 15.7265625 C16.75875 15.15679688 15.8925 14.58703125 15 14 C15 13.34 15 12.68 15 12 C14.28457031 11.7525 13.56914063 11.505 12.83203125 11.25 C9.68590294 9.86136405 7.36189037 8.15536054 4.6875 6 C3.80449219 5.29875 2.92148438 4.5975 2.01171875 3.875 C1.34785156 3.25625 0.68398437 2.6375 0 2 C0 1.34 0 0.68 0 0 Z " fill="#F0DA23" transform="translate(82,747)"/>
<path d="M0 0 C-0.33 0.66 -0.66 1.32 -1 2 C-10.57 1.67 -20.14 1.34 -30 1 C-30 0.67 -30 0.34 -30 0 C-26.68812351 -0.19977261 -23.37550624 -0.38251777 -20.0625 -0.5625 C-19.13630859 -0.61857422 -18.21011719 -0.67464844 -17.25585938 -0.73242188 C-11.35623718 -1.04292831 -5.8537262 -0.81051594 0 0 Z " fill="#22DEEE" transform="translate(200,521)"/>
<path d="M0 0 C1.91595968 -0.08133791 3.83291932 -0.13934367 5.75 -0.1875 C7.35101563 -0.23970703 7.35101563 -0.23970703 8.984375 -0.29296875 C12.30027855 0.02917214 13.59016673 0.77148914 16 3 C14.08268082 2.88544319 12.1661325 2.75793742 10.25 2.625 C9.18265625 2.55539062 8.1153125 2.48578125 7.015625 2.4140625 C4.19793568 2.0271777 2.4169634 1.44313834 0 0 Z " fill="#EFDB23" transform="translate(151,783)"/>
</svg>
